<?xml version="1.0" encoding="UTF-8" standalone="no"?><svg xmlns="http://www.w3.org/2000/svg" xmlns:xlink="http://www.w3.org/1999/xlink" clip-rule="evenodd" stroke-miterlimit="4.00" viewBox="0 0 1680 1050"><desc>SVG generated by Keynote</desc><defs></defs><g transform="matrix(1.00, 0.00, -0.00, -1.00, 0.0, 1050.0)"><g><clipPath id="clip-93"><path d="M 0.0 1050.0 L 1680.0 1050.0 L 1680.0 0.0 L 0.0 0.0 Z M 0.0 1050.0 "></path></clipPath><g clip-path="url(#clip-93)"><image xlink:href="../../3A670F5E-8221-4757-901E-2DA3EDD031A5/assets/FE8799802A2C1C906EEE3F4E2B47FBA7.jpeg" width="1229.00" height="768.00" transform="matrix(1.37, 0.00, -0.00, -1.37, 0.0, 1050.0)"></image></g></g><text xml:space="preserve" font-family="GillSans" font-size="114.0" fill="#FEFFFF" transform="matrix(1.00, 0.00, -0.00, -1.00, 290.0, 551.0)">I</text><text xml:space="preserve" font-family="GillSans" font-size="114.0" fill="#FEFFFF" transform="matrix(1.00, 0.00, -0.00, -1.00, 318.5, 551.0)">t</text><text xml:space="preserve" font-family="GillSans" font-size="114.0" fill="#FEFFFF" transform="matrix(1.00, 0.00, -0.00, -1.00, 356.5, 551.0)"> </text><text xml:space="preserve" font-family="GillSans" font-size="114.0" fill="#FEFFFF" transform="matrix(1.00, 0.00, -0.00, -1.00, 388.1, 551.0)">t</text><text xml:space="preserve" font-family="GillSans" font-size="114.0" fill="#FEFFFF" transform="matrix(1.00, 0.00, -0.00, -1.00, 426.1, 551.0)">h</text><text xml:space="preserve" font-family="GillSans" font-size="114.0" fill="#FEFFFF" transform="matrix(1.00, 0.00, -0.00, -1.00, 483.1, 551.0)">e</text><text xml:space="preserve" font-family="GillSans" font-size="114.0" fill="#FEFFFF" transform="matrix(1.00, 0.00, -0.00, -1.00, 537.7, 551.0)">n</text><text xml:space="preserve" font-family="GillSans" font-size="114.0" fill="#FEFFFF" transform="matrix(1.00, 0.00, -0.00, -1.00, 594.7, 551.0)"> </text><text xml:space="preserve" font-family="GillSans" font-size="114.0" fill="#FEFFFF" transform="matrix(1.00, 0.00, -0.00, -1.00, 626.3, 551.0)">r</text><text xml:space="preserve" font-family="GillSans" font-size="114.0" fill="#FEFFFF" transform="matrix(1.00, 0.00, -0.00, -1.00, 671.5, 551.0)">a</text><text xml:space="preserve" font-family="GillSans" font-size="114.0" fill="#FEFFFF" transform="matrix(1.00, 0.00, -0.00, -1.00, 720.1, 551.0)">i</text><text xml:space="preserve" font-family="GillSans" font-size="114.0" fill="#FEFFFF" transform="matrix(1.00, 0.00, -0.00, -1.00, 745.1, 551.0)">s</text><text xml:space="preserve" font-family="GillSans" font-size="114.0" fill="#FEFFFF" transform="matrix(1.00, 0.00, -0.00, -1.00, 789.0, 551.0)">e</text><text xml:space="preserve" font-family="GillSans" font-size="114.0" fill="#FEFFFF" transform="matrix(1.00, 0.00, -0.00, -1.00, 843.6, 551.0)">d</text><text xml:space="preserve" font-family="GillSans" font-size="114.0" fill="#FEFFFF" transform="matrix(1.00, 0.00, -0.00, -1.00, 901.7, 551.0)"> </text><text xml:space="preserve" font-family="GillSans" font-size="114.0" fill="#FEFFFF" transform="matrix(1.00, 0.00, -0.00, -1.00, 933.3, 551.0)">1</text><text xml:space="preserve" font-family="GillSans" font-size="114.0" fill="#FEFFFF" transform="matrix(1.00, 0.00, -0.00, -1.00, 990.3, 551.0)">3</text><text xml:space="preserve" font-family="GillSans" font-size="114.0" fill="#FEFFFF" transform="matrix(1.00, 0.00, -0.00, -1.00, 1047.3, 551.0)"> </text><text xml:space="preserve" font-family="GillSans" font-size="114.0" fill="#FEFFFF" transform="matrix(1.00, 0.00, -0.00, -1.00, 1079.0, 551.0)">a</text><text xml:space="preserve" font-family="GillSans" font-size="114.0" fill="#FEFFFF" transform="matrix(1.00, 0.00, -0.00, -1.00, 1127.6, 551.0)">n</text><text xml:space="preserve" font-family="GillSans" font-size="114.0" fill="#FEFFFF" transform="matrix(1.00, 0.00, -0.00, -1.00, 1184.6, 551.0)">d</text><text xml:space="preserve" font-family="GillSans" font-size="114.0" fill="#FEFFFF" transform="matrix(1.00, 0.00, -0.00, -1.00, 1242.7, 551.0)"> </text><text xml:space="preserve" font-family="GillSans" font-size="114.0" fill="#FEFFFF" transform="matrix(1.00, 0.00, -0.00, -1.00, 1274.3, 551.0)">2</text><text xml:space="preserve" font-family="GillSans" font-size="114.0" fill="#FEFFFF" transform="matrix(1.00, 0.00, -0.00, -1.00, 1331.3, 551.0)">7</text><text xml:space="preserve" font-family="GillSans" font-size="114.0" fill="#FEFFFF" transform="matrix(1.00, 0.00, -0.00, -1.00, 1388.3, 551.0)"> </text><text xml:space="preserve" font-family="GillSans" font-size="114.0" fill="#FEFFFF" transform="matrix(1.00, 0.00, -0.00, -1.00, 673.0, 420.0)">m</text><text xml:space="preserve" font-family="GillSans" font-size="114.0" fill="#FEFFFF" transform="matrix(1.00, 0.00, -0.00, -1.00, 760.9, 420.0)">i</text><text xml:space="preserve" font-family="GillSans" font-size="114.0" fill="#FEFFFF" transform="matrix(1.00, 0.00, -0.00, -1.00, 785.9, 420.0)">l</text><text xml:space="preserve" font-family="GillSans" font-size="114.0" fill="#FEFFFF" transform="matrix(1.00, 0.00, -0.00, -1.00, 810.9, 420.0)">l</text><text xml:space="preserve" font-family="GillSans" font-size="114.0" fill="#FEFFFF" transform="matrix(1.00, 0.00, -0.00, -1.00, 835.9, 420.0)">i</text><text xml:space="preserve" font-family="GillSans" font-size="114.0" fill="#FEFFFF" transform="matrix(1.00, 0.00, -0.00, -1.00, 861.0, 420.0)">o</text><text xml:space="preserve" font-family="GillSans" font-size="114.0" fill="#FEFFFF" transform="matrix(1.00, 0.00, -0.00, -1.00, 923.8, 420.0)">n</text><text xml:space="preserve" font-family="GillSans" font-size="114.0" fill="#FEFFFF" transform="matrix(1.00, 0.00, -0.00, -1.00, 980.8, 420.0)">.</text><text xml:space="preserve" font-family="GillSans" font-size="36.0" fill="#FEFFFF" transform="matrix(1.00, 0.00, -0.00, -1.00, 702.0, 996.0)">t</text><text xml:space="preserve" font-family="GillSans" font-size="36.0" fill="#FEFFFF" transform="matrix(1.00, 0.00, -0.00, -1.00, 714.0, 996.0)">w</text><text xml:space="preserve" font-family="GillSans" font-size="36.0" fill="#FEFFFF" transform="matrix(1.00, 0.00, -0.00, -1.00, 739.9, 996.0)">i</text><text xml:space="preserve" font-family="GillSans" font-size="36.0" fill="#FEFFFF" transform="matrix(1.00, 0.00, -0.00, -1.00, 747.8, 996.0)">t</text><text xml:space="preserve" font-family="GillSans" font-size="36.0" fill="#FEFFFF" transform="matrix(1.00, 0.00, -0.00, -1.00, 759.8, 996.0)">t</text><text xml:space="preserve" font-family="GillSans" font-size="36.0" fill="#FEFFFF" transform="matrix(1.00, 0.00, -0.00, -1.00, 771.8, 996.0)">e</text><text xml:space="preserve" font-family="GillSans" font-size="36.0" fill="#FEFFFF" transform="matrix(1.00, 0.00, -0.00, -1.00, 789.0, 996.0)">r</text><text xml:space="preserve" font-family="GillSans" font-size="36.0" fill="#FEFFFF" transform="matrix(1.00, 0.00, -0.00, -1.00, 799.7, 996.0)">.</text><text xml:space="preserve" font-family="GillSans" font-size="36.0" fill="#FEFFFF" transform="matrix(1.00, 0.00, -0.00, -1.00, 807.6, 996.0)">c</text><text xml:space="preserve" font-family="GillSans" font-size="36.0" fill="#FEFFFF" transform="matrix(1.00, 0.00, -0.00, -1.00, 823.3, 996.0)">o</text><text xml:space="preserve" font-family="GillSans" font-size="36.0" fill="#FEFFFF" transform="matrix(1.00, 0.00, -0.00, -1.00, 843.2, 996.0)">m</text><text xml:space="preserve" font-family="GillSans" font-size="36.0" fill="#FEFFFF" transform="matrix(1.00, 0.00, -0.00, -1.00, 870.9, 996.0)">/</text><text xml:space="preserve" font-family="GillSans" font-size="36.0" fill="#FEFFFF" transform="matrix(1.00, 0.00, -0.00, -1.00, 881.0, 996.0)">d</text><text xml:space="preserve" font-family="GillSans" font-size="36.0" fill="#FEFFFF" transform="matrix(1.00, 0.00, -0.00, -1.00, 899.4, 996.0)">a</text><text xml:space="preserve" font-family="GillSans" font-size="36.0" fill="#FEFFFF" transform="matrix(1.00, 0.00, -0.00, -1.00, 914.7, 996.0)">m</text><text xml:space="preserve" font-family="GillSans" font-size="36.0" fill="#FEFFFF" transform="matrix(1.00, 0.00, -0.00, -1.00, 942.5, 996.0)">o</text><text xml:space="preserve" font-family="GillSans" font-size="36.0" fill="#FEFFFF" transform="matrix(1.00, 0.00, -0.00, -1.00, 962.4, 996.0)">g</text></g></svg>