<?xml version="1.0" encoding="UTF-8" standalone="no"?><svg xmlns="http://www.w3.org/2000/svg" xmlns:xlink="http://www.w3.org/1999/xlink" clip-rule="evenodd" stroke-miterlimit="4.00" viewBox="0 0 1680 1050"><desc>SVG generated by Keynote</desc><defs></defs><g transform="matrix(1.00, 0.00, -0.00, -1.00, 0.0, 1050.0)"><g><clipPath id="clip-232"><path d="M 0.0 1050.0 L 1680.0 1050.0 L 1680.0 0.0 L 0.0 0.0 Z M 0.0 1050.0 "></path></clipPath><g clip-path="url(#clip-232)"><image xlink:href="../../3A670F5E-8221-4757-901E-2DA3EDD031A5/assets/FE8799802A2C1C906EEE3F4E2B47FBA7.jpeg" width="1229.00" height="768.00" transform="matrix(1.37, 0.00, -0.00, -1.37, 0.0, 1050.0)"></image></g></g><text xml:space="preserve" font-family="GillSans" font-size="75.2" fill="#FEFFFF" transform="matrix(1.00, 0.00, -0.00, -1.00, 174.0, 182.0)">I</text><text xml:space="preserve" font-family="GillSans" font-size="75.2" fill="#FEFFFF" transform="matrix(1.00, 0.00, -0.00, -1.00, 192.8, 182.0)"> </text><text xml:space="preserve" font-family="GillSans" font-size="75.2" fill="#FEFFFF" transform="matrix(1.00, 0.00, -0.00, -1.00, 213.7, 182.0)">l</text><text xml:space="preserve" font-family="GillSans" font-size="75.2" fill="#FEFFFF" transform="matrix(1.00, 0.00, -0.00, -1.00, 230.2, 182.0)">i</text><text xml:space="preserve" font-family="GillSans" font-size="75.2" fill="#FEFFFF" transform="matrix(1.00, 0.00, -0.00, -1.00, 246.7, 182.0)">k</text><text xml:space="preserve" font-family="GillSans" font-size="75.2" fill="#FEFFFF" transform="matrix(1.00, 0.00, -0.00, -1.00, 280.5, 182.0)">e</text><text xml:space="preserve" font-family="GillSans" font-size="75.2" fill="#FEFFFF" transform="matrix(1.00, 0.00, -0.00, -1.00, 316.6, 182.0)">d</text><text xml:space="preserve" font-family="GillSans" font-size="75.2" fill="#FEFFFF" transform="matrix(1.00, 0.00, -0.00, -1.00, 354.9, 182.0)"> </text><text xml:space="preserve" font-family="GillSans" font-size="75.2" fill="#FEFFFF" transform="matrix(1.00, 0.00, -0.00, -1.00, 375.8, 182.0)">i</text><text xml:space="preserve" font-family="GillSans" font-size="75.2" fill="#FEFFFF" transform="matrix(1.00, 0.00, -0.00, -1.00, 392.3, 182.0)">t</text><text xml:space="preserve" font-family="GillSans" font-size="75.2" fill="#FEFFFF" transform="matrix(1.00, 0.00, -0.00, -1.00, 417.4, 182.0)"> </text><text xml:space="preserve" font-family="GillSans" font-size="75.2" fill="#FEFFFF" transform="matrix(1.00, 0.00, -0.00, -1.00, 438.2, 182.0)">s</text><text xml:space="preserve" font-family="GillSans" font-size="75.2" fill="#FEFFFF" transform="matrix(1.00, 0.00, -0.00, -1.00, 467.2, 182.0)">o</text><text xml:space="preserve" font-family="GillSans" font-size="75.2" fill="#FEFFFF" transform="matrix(1.00, 0.00, -0.00, -1.00, 508.7, 182.0)"> </text><text xml:space="preserve" font-family="GillSans" font-size="75.2" fill="#FEFFFF" transform="matrix(1.00, 0.00, -0.00, -1.00, 529.6, 182.0)">m</text><text xml:space="preserve" font-family="GillSans" font-size="75.2" fill="#FEFFFF" transform="matrix(1.00, 0.00, -0.00, -1.00, 586.8, 182.0)">u</text><text xml:space="preserve" font-family="GillSans" font-size="75.2" fill="#FEFFFF" transform="matrix(1.00, 0.00, -0.00, -1.00, 624.5, 182.0)">c</text><text xml:space="preserve" font-family="GillSans" font-size="75.2" fill="#FEFFFF" transform="matrix(1.00, 0.00, -0.00, -1.00, 657.4, 182.0)">h</text><text xml:space="preserve" font-family="GillSans" font-size="75.2" fill="#FEFFFF" transform="matrix(1.00, 0.00, -0.00, -1.00, 695.0, 182.0)"> </text><text xml:space="preserve" font-family="GillSans" font-size="75.2" fill="#FEFFFF" transform="matrix(1.00, 0.00, -0.00, -1.00, 715.9, 182.0)">I</text><text xml:space="preserve" font-family="GillSans" font-size="75.2" fill="#FEFFFF" transform="matrix(1.00, 0.00, -0.00, -1.00, 734.7, 182.0)"> </text><text xml:space="preserve" font-family="GillSans" font-size="75.2" fill="#FEFFFF" transform="matrix(1.00, 0.00, -0.00, -1.00, 755.6, 182.0)">b</text><text xml:space="preserve" font-family="GillSans" font-size="75.2" fill="#FEFFFF" transform="matrix(1.00, 0.00, -0.00, -1.00, 793.2, 182.0)">l</text><text xml:space="preserve" font-family="GillSans" font-size="75.2" fill="#FEFFFF" transform="matrix(1.00, 0.00, -0.00, -1.00, 809.8, 182.0)">o</text><text xml:space="preserve" font-family="GillSans" font-size="75.2" fill="#FEFFFF" transform="matrix(1.00, 0.00, -0.00, -1.00, 851.2, 182.0)">g</text><text xml:space="preserve" font-family="GillSans" font-size="75.2" fill="#FEFFFF" transform="matrix(1.00, 0.00, -0.00, -1.00, 883.3, 182.0)">g</text><text xml:space="preserve" font-family="GillSans" font-size="75.2" fill="#FEFFFF" transform="matrix(1.00, 0.00, -0.00, -1.00, 915.4, 182.0)">e</text><text xml:space="preserve" font-family="GillSans" font-size="75.2" fill="#FEFFFF" transform="matrix(1.00, 0.00, -0.00, -1.00, 951.5, 182.0)">d</text><text xml:space="preserve" font-family="GillSans" font-size="75.2" fill="#FEFFFF" transform="matrix(1.00, 0.00, -0.00, -1.00, 989.8, 182.0)"> </text><text xml:space="preserve" font-family="GillSans" font-size="75.2" fill="#FEFFFF" transform="matrix(1.00, 0.00, -0.00, -1.00, 1010.7, 182.0)">a</text><text xml:space="preserve" font-family="GillSans" font-size="75.2" fill="#FEFFFF" transform="matrix(1.00, 0.00, -0.00, -1.00, 1042.8, 182.0)">b</text><text xml:space="preserve" font-family="GillSans" font-size="75.2" fill="#FEFFFF" transform="matrix(1.00, 0.00, -0.00, -1.00, 1080.4, 182.0)">o</text><text xml:space="preserve" font-family="GillSans" font-size="75.2" fill="#FEFFFF" transform="matrix(1.00, 0.00, -0.00, -1.00, 1121.9, 182.0)">u</text><text xml:space="preserve" font-family="GillSans" font-size="75.2" fill="#FEFFFF" transform="matrix(1.00, 0.00, -0.00, -1.00, 1159.5, 182.0)">t</text><text xml:space="preserve" font-family="GillSans" font-size="75.2" fill="#FEFFFF" transform="matrix(1.00, 0.00, -0.00, -1.00, 1184.6, 182.0)"> </text><text xml:space="preserve" font-family="GillSans" font-size="75.2" fill="#FEFFFF" transform="matrix(1.00, 0.00, -0.00, -1.00, 1205.5, 182.0)">i</text><text xml:space="preserve" font-family="GillSans" font-size="75.2" fill="#FEFFFF" transform="matrix(1.00, 0.00, -0.00, -1.00, 1222.0, 182.0)">t</text><text xml:space="preserve" font-family="GillSans" font-size="75.2" fill="#FEFFFF" transform="matrix(1.00, 0.00, -0.00, -1.00, 1247.1, 182.0)"> </text><text xml:space="preserve" font-family="GillSans" font-size="75.2" fill="#FEFFFF" transform="matrix(1.00, 0.00, -0.00, -1.00, 1267.9, 182.0)">f</text><text xml:space="preserve" font-family="GillSans" font-size="75.2" fill="#FEFFFF" transform="matrix(1.00, 0.00, -0.00, -1.00, 1286.0, 182.0)">o</text><text xml:space="preserve" font-family="GillSans" font-size="75.2" fill="#FEFFFF" transform="matrix(1.00, 0.00, -0.00, -1.00, 1327.5, 182.0)">r</text><text xml:space="preserve" font-family="GillSans" font-size="75.2" fill="#FEFFFF" transform="matrix(1.00, 0.00, -0.00, -1.00, 1357.3, 182.0)"> </text><text xml:space="preserve" font-family="GillSans" font-size="75.2" fill="#FEFFFF" transform="matrix(1.00, 0.00, -0.00, -1.00, 1378.2, 182.0)">I</text><text xml:space="preserve" font-family="GillSans" font-size="75.2" fill="#FEFFFF" transform="matrix(1.00, 0.00, -0.00, -1.00, 1397.0, 182.0)">r</text><text xml:space="preserve" font-family="GillSans" font-size="75.2" fill="#FEFFFF" transform="matrix(1.00, 0.00, -0.00, -1.00, 1424.9, 182.0)">o</text><text xml:space="preserve" font-family="GillSans" font-size="75.2" fill="#FEFFFF" transform="matrix(1.00, 0.00, -0.00, -1.00, 1466.4, 182.0)">n</text><text xml:space="preserve" font-family="GillSans" font-size="75.2" fill="#FEFFFF" transform="matrix(1.00, 0.00, -0.00, -1.00, 1504.0, 182.0)"> </text><text xml:space="preserve" font-family="GillSans" font-size="75.2" fill="#FEFFFF" transform="matrix(1.00, 0.00, -0.00, -1.00, 461.0, 96.0)">M</text><text xml:space="preserve" font-family="GillSans" font-size="75.2" fill="#FEFFFF" transform="matrix(1.00, 0.00, -0.00, -1.00, 519.7, 96.0)">a</text><text xml:space="preserve" font-family="GillSans" font-size="75.2" fill="#FEFFFF" transform="matrix(1.00, 0.00, -0.00, -1.00, 551.8, 96.0)">n</text><text xml:space="preserve" font-family="GillSans" font-size="75.2" fill="#FEFFFF" transform="matrix(1.00, 0.00, -0.00, -1.00, 589.4, 96.0)"> </text><text xml:space="preserve" font-family="GillSans" font-size="75.2" fill="#FEFFFF" transform="matrix(1.00, 0.00, -0.00, -1.00, 610.3, 96.0)">t</text><text xml:space="preserve" font-family="GillSans" font-size="75.2" fill="#FEFFFF" transform="matrix(1.00, 0.00, -0.00, -1.00, 635.4, 96.0)">o</text><text xml:space="preserve" font-family="GillSans" font-size="75.2" fill="#FEFFFF" transform="matrix(1.00, 0.00, -0.00, -1.00, 676.9, 96.0)"> </text><text xml:space="preserve" font-family="GillSans" font-size="75.2" fill="#FEFFFF" transform="matrix(1.00, 0.00, -0.00, -1.00, 697.8, 96.0)">s</text><text xml:space="preserve" font-family="GillSans" font-size="75.2" fill="#FEFFFF" transform="matrix(1.00, 0.00, -0.00, -1.00, 726.7, 96.0)">p</text><text xml:space="preserve" font-family="GillSans" font-size="75.2" fill="#FEFFFF" transform="matrix(1.00, 0.00, -0.00, -1.00, 764.3, 96.0)">r</text><text xml:space="preserve" font-family="GillSans" font-size="75.2" fill="#FEFFFF" transform="matrix(1.00, 0.00, -0.00, -1.00, 792.6, 96.0)">e</text><text xml:space="preserve" font-family="GillSans" font-size="75.2" fill="#FEFFFF" transform="matrix(1.00, 0.00, -0.00, -1.00, 828.7, 96.0)">a</text><text xml:space="preserve" font-family="GillSans" font-size="75.2" fill="#FEFFFF" transform="matrix(1.00, 0.00, -0.00, -1.00, 860.8, 96.0)">d</text><text xml:space="preserve" font-family="GillSans" font-size="75.2" fill="#FEFFFF" transform="matrix(1.00, 0.00, -0.00, -1.00, 899.1, 96.0)"> </text><text xml:space="preserve" font-family="GillSans" font-size="75.2" fill="#FEFFFF" transform="matrix(1.00, 0.00, -0.00, -1.00, 920.0, 96.0)">t</text><text xml:space="preserve" font-family="GillSans" font-size="75.2" fill="#FEFFFF" transform="matrix(1.00, 0.00, -0.00, -1.00, 945.0, 96.0)">h</text><text xml:space="preserve" font-family="GillSans" font-size="75.2" fill="#FEFFFF" transform="matrix(1.00, 0.00, -0.00, -1.00, 982.7, 96.0)">e</text><text xml:space="preserve" font-family="GillSans" font-size="75.2" fill="#FEFFFF" transform="matrix(1.00, 0.00, -0.00, -1.00, 1018.7, 96.0)"> </text><text xml:space="preserve" font-family="GillSans" font-size="75.2" fill="#FEFFFF" transform="matrix(1.00, 0.00, -0.00, -1.00, 1039.6, 96.0)">w</text><text xml:space="preserve" font-family="GillSans" font-size="75.2" fill="#FEFFFF" transform="matrix(1.00, 0.00, -0.00, -1.00, 1092.2, 96.0)">o</text><text xml:space="preserve" font-family="GillSans" font-size="75.2" fill="#FEFFFF" transform="matrix(1.00, 0.00, -0.00, -1.00, 1133.7, 96.0)">r</text><text xml:space="preserve" font-family="GillSans" font-size="75.2" fill="#FEFFFF" transform="matrix(1.00, 0.00, -0.00, -1.00, 1162.4, 96.0)">d</text><text xml:space="preserve" font-family="GillSans" font-size="75.2" fill="#FEFFFF" transform="matrix(1.00, 0.00, -0.00, -1.00, 1200.7, 96.0)">.</text><image xlink:href="../../088DCF05-8822-4C6C-8BBC-D5E6BFF49FDD/assets/244950561F3BA7470DBF4ED867D8FF33.png" width="714.00" height="606.00" transform="matrix(1.29, 0.00, -0.00, -1.29, 378.0, 1040.0)"></image><image xlink:href="../../088DCF05-8822-4C6C-8BBC-D5E6BFF49FDD/assets/4A4790BF512185E2DC8F9917437CCEF5.png" width="3846.00" height="505.00" transform="matrix(0.24, 0.00, -0.00, -0.24, 378.0, 256.6)"></image></g></svg>