<?xml version="1.0" encoding="UTF-8" standalone="no"?><svg xmlns="http://www.w3.org/2000/svg" xmlns:xlink="http://www.w3.org/1999/xlink" clip-rule="evenodd" stroke-miterlimit="4.00" viewBox="0 0 1680 1050"><desc>SVG generated by Keynote</desc><defs></defs><g transform="matrix(1.00, 0.00, -0.00, -1.00, 0.0, 1050.0)"><g><clipPath id="clip-80"><path d="M 0.0 1050.0 L 1680.0 1050.0 L 1680.0 0.0 L 0.0 0.0 Z M 0.0 1050.0 "></path></clipPath><g clip-path="url(#clip-80)"><image xlink:href="../../3A670F5E-8221-4757-901E-2DA3EDD031A5/assets/FE8799802A2C1C906EEE3F4E2B47FBA7.jpeg" width="1229.00" height="768.00" transform="matrix(1.37, 0.00, -0.00, -1.37, 0.0, 1050.0)"></image></g></g><text xml:space="preserve" font-family="GillSans" font-size="114.0" fill="#FEFFFF" transform="matrix(1.00, 0.00, -0.00, -1.00, 225.0, 616.0)">T</text><text xml:space="preserve" font-family="GillSans" font-size="114.0" fill="#FEFFFF" transform="matrix(1.00, 0.00, -0.00, -1.00, 293.9, 616.0)">h</text><text xml:space="preserve" font-family="GillSans" font-size="114.0" fill="#FEFFFF" transform="matrix(1.00, 0.00, -0.00, -1.00, 350.9, 616.0)">e</text><text xml:space="preserve" font-family="GillSans" font-size="114.0" fill="#FEFFFF" transform="matrix(1.00, 0.00, -0.00, -1.00, 403.7, 616.0)">y</text><text xml:space="preserve" font-family="GillSans" font-size="114.0" fill="#FEFFFF" transform="matrix(1.00, 0.00, -0.00, -1.00, 453.7, 616.0)"> </text><text xml:space="preserve" font-family="GillSans" font-size="114.0" fill="#FEFFFF" transform="matrix(1.00, 0.00, -0.00, -1.00, 485.3, 616.0)">a</text><text xml:space="preserve" font-family="GillSans" font-size="114.0" fill="#FEFFFF" transform="matrix(1.00, 0.00, -0.00, -1.00, 533.9, 616.0)">r</text><text xml:space="preserve" font-family="GillSans" font-size="114.0" fill="#FEFFFF" transform="matrix(1.00, 0.00, -0.00, -1.00, 576.8, 616.0)">e</text><text xml:space="preserve" font-family="GillSans" font-size="114.0" fill="#FEFFFF" transform="matrix(1.00, 0.00, -0.00, -1.00, 631.4, 616.0)"> </text><text xml:space="preserve" font-family="GillSans" font-size="114.0" fill="#FEFFFF" transform="matrix(1.00, 0.00, -0.00, -1.00, 663.1, 616.0)">t</text><text xml:space="preserve" font-family="GillSans" font-size="114.0" fill="#FEFFFF" transform="matrix(1.00, 0.00, -0.00, -1.00, 701.0, 616.0)">h</text><text xml:space="preserve" font-family="GillSans" font-size="114.0" fill="#FEFFFF" transform="matrix(1.00, 0.00, -0.00, -1.00, 758.0, 616.0)">e</text><text xml:space="preserve" font-family="GillSans" font-size="114.0" fill="#FEFFFF" transform="matrix(1.00, 0.00, -0.00, -1.00, 812.6, 616.0)"> </text><text xml:space="preserve" font-family="GillSans" font-size="114.0" fill="#FEFFFF" transform="matrix(1.00, 0.00, -0.00, -1.00, 844.3, 616.0)">w</text><text xml:space="preserve" font-family="GillSans" font-size="114.0" fill="#FEFFFF" transform="matrix(1.00, 0.00, -0.00, -1.00, 924.0, 616.0)">e</text><text xml:space="preserve" font-family="GillSans" font-size="114.0" fill="#FEFFFF" transform="matrix(1.00, 0.00, -0.00, -1.00, 978.6, 616.0)">b</text><text xml:space="preserve" font-family="GillSans" font-size="114.0" fill="#FEFFFF" transform="matrix(1.00, 0.00, -0.00, -1.00, 1035.6, 616.0)">s</text><text xml:space="preserve" font-family="GillSans" font-size="114.0" fill="#FEFFFF" transform="matrix(1.00, 0.00, -0.00, -1.00, 1079.5, 616.0)">i</text><text xml:space="preserve" font-family="GillSans" font-size="114.0" fill="#FEFFFF" transform="matrix(1.00, 0.00, -0.00, -1.00, 1104.5, 616.0)">t</text><text xml:space="preserve" font-family="GillSans" font-size="114.0" fill="#FEFFFF" transform="matrix(1.00, 0.00, -0.00, -1.00, 1142.5, 616.0)">e</text><text xml:space="preserve" font-family="GillSans" font-size="114.0" fill="#FEFFFF" transform="matrix(1.00, 0.00, -0.00, -1.00, 1197.1, 616.0)">s</text><text xml:space="preserve" font-family="GillSans" font-size="114.0" fill="#FEFFFF" transform="matrix(1.00, 0.00, -0.00, -1.00, 1240.9, 616.0)"> </text><text xml:space="preserve" font-family="GillSans" font-size="114.0" fill="#FEFFFF" transform="matrix(1.00, 0.00, -0.00, -1.00, 1272.5, 616.0)">t</text><text xml:space="preserve" font-family="GillSans" font-size="114.0" fill="#FEFFFF" transform="matrix(1.00, 0.00, -0.00, -1.00, 1310.5, 616.0)">h</text><text xml:space="preserve" font-family="GillSans" font-size="114.0" fill="#FEFFFF" transform="matrix(1.00, 0.00, -0.00, -1.00, 1367.5, 616.0)">a</text><text xml:space="preserve" font-family="GillSans" font-size="114.0" fill="#FEFFFF" transform="matrix(1.00, 0.00, -0.00, -1.00, 1416.1, 616.0)">t</text><text xml:space="preserve" font-family="GillSans" font-size="114.0" fill="#FEFFFF" transform="matrix(1.00, 0.00, -0.00, -1.00, 1454.1, 616.0)"> </text><text xml:space="preserve" font-family="GillSans" font-size="114.0" fill="#FEFFFF" transform="matrix(1.00, 0.00, -0.00, -1.00, 199.0, 485.0)">b</text><text xml:space="preserve" font-family="GillSans" font-size="114.0" fill="#FEFFFF" transform="matrix(1.00, 0.00, -0.00, -1.00, 256.0, 485.0)">r</text><text xml:space="preserve" font-family="GillSans" font-size="114.0" fill="#FEFFFF" transform="matrix(1.00, 0.00, -0.00, -1.00, 301.1, 485.0)">i</text><text xml:space="preserve" font-family="GillSans" font-size="114.0" fill="#FEFFFF" transform="matrix(1.00, 0.00, -0.00, -1.00, 326.2, 485.0)">n</text><text xml:space="preserve" font-family="GillSans" font-size="114.0" fill="#FEFFFF" transform="matrix(1.00, 0.00, -0.00, -1.00, 383.2, 485.0)">g</text><text xml:space="preserve" font-family="GillSans" font-size="114.0" fill="#FEFFFF" transform="matrix(1.00, 0.00, -0.00, -1.00, 431.8, 485.0)"> </text><text xml:space="preserve" font-family="GillSans" font-size="114.0" fill="#FEFFFF" transform="matrix(1.00, 0.00, -0.00, -1.00, 463.4, 485.0)">t</text><text xml:space="preserve" font-family="GillSans" font-size="114.0" fill="#FEFFFF" transform="matrix(1.00, 0.00, -0.00, -1.00, 501.4, 485.0)">h</text><text xml:space="preserve" font-family="GillSans" font-size="114.0" fill="#FEFFFF" transform="matrix(1.00, 0.00, -0.00, -1.00, 558.4, 485.0)">e</text><text xml:space="preserve" font-family="GillSans" font-size="114.0" fill="#FEFFFF" transform="matrix(1.00, 0.00, -0.00, -1.00, 613.0, 485.0)"> </text><text xml:space="preserve" font-family="GillSans" font-size="114.0" fill="#FEFFFF" transform="matrix(1.00, 0.00, -0.00, -1.00, 644.7, 485.0)">h</text><text xml:space="preserve" font-family="GillSans" font-size="114.0" fill="#FEFFFF" transform="matrix(1.00, 0.00, -0.00, -1.00, 701.7, 485.0)">u</text><text xml:space="preserve" font-family="GillSans" font-size="114.0" fill="#FEFFFF" transform="matrix(1.00, 0.00, -0.00, -1.00, 758.7, 485.0)">m</text><text xml:space="preserve" font-family="GillSans" font-size="114.0" fill="#FEFFFF" transform="matrix(1.00, 0.00, -0.00, -1.00, 846.6, 485.0)">a</text><text xml:space="preserve" font-family="GillSans" font-size="114.0" fill="#FEFFFF" transform="matrix(1.00, 0.00, -0.00, -1.00, 895.2, 485.0)">n</text><text xml:space="preserve" font-family="GillSans" font-size="114.0" fill="#FEFFFF" transform="matrix(1.00, 0.00, -0.00, -1.00, 952.2, 485.0)"> </text><text xml:space="preserve" font-family="GillSans" font-size="114.0" fill="#FEFFFF" transform="matrix(1.00, 0.00, -0.00, -1.00, 983.8, 485.0)">s</text><text xml:space="preserve" font-family="GillSans" font-size="114.0" fill="#FEFFFF" transform="matrix(1.00, 0.00, -0.00, -1.00, 1027.7, 485.0)">i</text><text xml:space="preserve" font-family="GillSans" font-size="114.0" fill="#FEFFFF" transform="matrix(1.00, 0.00, -0.00, -1.00, 1052.7, 485.0)">d</text><text xml:space="preserve" font-family="GillSans" font-size="114.0" fill="#FEFFFF" transform="matrix(1.00, 0.00, -0.00, -1.00, 1110.8, 485.0)">e</text><text xml:space="preserve" font-family="GillSans" font-size="114.0" fill="#FEFFFF" transform="matrix(1.00, 0.00, -0.00, -1.00, 1165.4, 485.0)"> </text><text xml:space="preserve" font-family="GillSans" font-size="114.0" fill="#FEFFFF" transform="matrix(1.00, 0.00, -0.00, -1.00, 1197.0, 485.0)">t</text><text xml:space="preserve" font-family="GillSans" font-size="114.0" fill="#FEFFFF" transform="matrix(1.00, 0.00, -0.00, -1.00, 1235.0, 485.0)">o</text><text xml:space="preserve" font-family="GillSans" font-size="114.0" fill="#FEFFFF" transform="matrix(1.00, 0.00, -0.00, -1.00, 1297.9, 485.0)"> </text><text xml:space="preserve" font-family="GillSans" font-size="114.0" fill="#FEFFFF" transform="matrix(1.00, 0.00, -0.00, -1.00, 1329.5, 485.0)">t</text><text xml:space="preserve" font-family="GillSans" font-size="114.0" fill="#FEFFFF" transform="matrix(1.00, 0.00, -0.00, -1.00, 1367.5, 485.0)">h</text><text xml:space="preserve" font-family="GillSans" font-size="114.0" fill="#FEFFFF" transform="matrix(1.00, 0.00, -0.00, -1.00, 1424.5, 485.0)">e</text><text xml:space="preserve" font-family="GillSans" font-size="114.0" fill="#FEFFFF" transform="matrix(1.00, 0.00, -0.00, -1.00, 1479.1, 485.0)"> </text><text xml:space="preserve" font-family="GillSans" font-size="114.0" fill="#FEFFFF" transform="matrix(1.00, 0.00, -0.00, -1.00, 641.0, 354.0)">I</text><text xml:space="preserve" font-family="GillSans" font-size="114.0" fill="#FEFFFF" transform="matrix(1.00, 0.00, -0.00, -1.00, 669.5, 354.0)">n</text><text xml:space="preserve" font-family="GillSans" font-size="114.0" fill="#FEFFFF" transform="matrix(1.00, 0.00, -0.00, -1.00, 726.5, 354.0)">t</text><text xml:space="preserve" font-family="GillSans" font-size="114.0" fill="#FEFFFF" transform="matrix(1.00, 0.00, -0.00, -1.00, 764.5, 354.0)">e</text><text xml:space="preserve" font-family="GillSans" font-size="114.0" fill="#FEFFFF" transform="matrix(1.00, 0.00, -0.00, -1.00, 819.1, 354.0)">r</text><text xml:space="preserve" font-family="GillSans" font-size="114.0" fill="#FEFFFF" transform="matrix(1.00, 0.00, -0.00, -1.00, 864.2, 354.0)">n</text><text xml:space="preserve" font-family="GillSans" font-size="114.0" fill="#FEFFFF" transform="matrix(1.00, 0.00, -0.00, -1.00, 921.2, 354.0)">e</text><text xml:space="preserve" font-family="GillSans" font-size="114.0" fill="#FEFFFF" transform="matrix(1.00, 0.00, -0.00, -1.00, 975.8, 354.0)">t</text><text xml:space="preserve" font-family="GillSans" font-size="114.0" fill="#FEFFFF" transform="matrix(1.00, 0.00, -0.00, -1.00, 1013.8, 354.0)">.</text><text xml:space="preserve" font-family="GillSans" font-size="36.0" fill="#FEFFFF" transform="matrix(1.00, 0.00, -0.00, -1.00, 702.0, 996.0)">t</text><text xml:space="preserve" font-family="GillSans" font-size="36.0" fill="#FEFFFF" transform="matrix(1.00, 0.00, -0.00, -1.00, 714.0, 996.0)">w</text><text xml:space="preserve" font-family="GillSans" font-size="36.0" fill="#FEFFFF" transform="matrix(1.00, 0.00, -0.00, -1.00, 739.9, 996.0)">i</text><text xml:space="preserve" font-family="GillSans" font-size="36.0" fill="#FEFFFF" transform="matrix(1.00, 0.00, -0.00, -1.00, 747.8, 996.0)">t</text><text xml:space="preserve" font-family="GillSans" font-size="36.0" fill="#FEFFFF" transform="matrix(1.00, 0.00, -0.00, -1.00, 759.8, 996.0)">t</text><text xml:space="preserve" font-family="GillSans" font-size="36.0" fill="#FEFFFF" transform="matrix(1.00, 0.00, -0.00, -1.00, 771.8, 996.0)">e</text><text xml:space="preserve" font-family="GillSans" font-size="36.0" fill="#FEFFFF" transform="matrix(1.00, 0.00, -0.00, -1.00, 789.0, 996.0)">r</text><text xml:space="preserve" font-family="GillSans" font-size="36.0" fill="#FEFFFF" transform="matrix(1.00, 0.00, -0.00, -1.00, 799.7, 996.0)">.</text><text xml:space="preserve" font-family="GillSans" font-size="36.0" fill="#FEFFFF" transform="matrix(1.00, 0.00, -0.00, -1.00, 807.6, 996.0)">c</text><text xml:space="preserve" font-family="GillSans" font-size="36.0" fill="#FEFFFF" transform="matrix(1.00, 0.00, -0.00, -1.00, 823.3, 996.0)">o</text><text xml:space="preserve" font-family="GillSans" font-size="36.0" fill="#FEFFFF" transform="matrix(1.00, 0.00, -0.00, -1.00, 843.2, 996.0)">m</text><text xml:space="preserve" font-family="GillSans" font-size="36.0" fill="#FEFFFF" transform="matrix(1.00, 0.00, -0.00, -1.00, 870.9, 996.0)">/</text><text xml:space="preserve" font-family="GillSans" font-size="36.0" fill="#FEFFFF" transform="matrix(1.00, 0.00, -0.00, -1.00, 881.0, 996.0)">d</text><text xml:space="preserve" font-family="GillSans" font-size="36.0" fill="#FEFFFF" transform="matrix(1.00, 0.00, -0.00, -1.00, 899.4, 996.0)">a</text><text xml:space="preserve" font-family="GillSans" font-size="36.0" fill="#FEFFFF" transform="matrix(1.00, 0.00, -0.00, -1.00, 914.7, 996.0)">m</text><text xml:space="preserve" font-family="GillSans" font-size="36.0" fill="#FEFFFF" transform="matrix(1.00, 0.00, -0.00, -1.00, 942.5, 996.0)">o</text><text xml:space="preserve" font-family="GillSans" font-size="36.0" fill="#FEFFFF" transform="matrix(1.00, 0.00, -0.00, -1.00, 962.4, 996.0)">g</text></g></svg>