<?xml version="1.0" encoding="UTF-8" standalone="no"?><svg xmlns="http://www.w3.org/2000/svg" xmlns:xlink="http://www.w3.org/1999/xlink" clip-rule="evenodd" stroke-miterlimit="4.00" viewBox="0 0 1680 1050"><desc>SVG generated by Keynote</desc><defs></defs><g transform="matrix(1.00, 0.00, -0.00, -1.00, 0.0, 1050.0)"><g><clipPath id="clip-191"><path d="M 0.0 1050.0 L 1680.0 1050.0 L 1680.0 0.0 L 0.0 0.0 Z M 0.0 1050.0 "></path></clipPath><g clip-path="url(#clip-191)"><image xlink:href="../../3A670F5E-8221-4757-901E-2DA3EDD031A5/assets/FE8799802A2C1C906EEE3F4E2B47FBA7.jpeg" width="1229.00" height="768.00" transform="matrix(1.37, 0.00, -0.00, -1.37, 0.0, 1050.0)"></image></g></g><text xml:space="preserve" font-family="GillSans" font-size="114.0" fill="#FEFFFF" transform="matrix(1.00, 0.00, -0.00, -1.00, 282.0, 485.0)">A</text><text xml:space="preserve" font-family="GillSans" font-size="114.0" fill="#FEFFFF" transform="matrix(1.00, 0.00, -0.00, -1.00, 358.0, 485.0)"> </text><text xml:space="preserve" font-family="GillSans" font-size="114.0" fill="#FEFFFF" transform="matrix(1.00, 0.00, -0.00, -1.00, 389.7, 485.0)">b</text><text xml:space="preserve" font-family="GillSans" font-size="114.0" fill="#FEFFFF" transform="matrix(1.00, 0.00, -0.00, -1.00, 446.7, 485.0)">u</text><text xml:space="preserve" font-family="GillSans" font-size="114.0" fill="#FEFFFF" transform="matrix(1.00, 0.00, -0.00, -1.00, 503.7, 485.0)">n</text><text xml:space="preserve" font-family="GillSans" font-size="114.0" fill="#FEFFFF" transform="matrix(1.00, 0.00, -0.00, -1.00, 560.7, 485.0)">c</text><text xml:space="preserve" font-family="GillSans" font-size="114.0" fill="#FEFFFF" transform="matrix(1.00, 0.00, -0.00, -1.00, 610.6, 485.0)">h</text><text xml:space="preserve" font-family="GillSans" font-size="114.0" fill="#FEFFFF" transform="matrix(1.00, 0.00, -0.00, -1.00, 667.6, 485.0)"> </text><text xml:space="preserve" font-family="GillSans" font-size="114.0" fill="#FEFFFF" transform="matrix(1.00, 0.00, -0.00, -1.00, 699.3, 485.0)">o</text><text xml:space="preserve" font-family="GillSans" font-size="114.0" fill="#FEFFFF" transform="matrix(1.00, 0.00, -0.00, -1.00, 762.1, 485.0)">f</text><text xml:space="preserve" font-family="GillSans" font-size="114.0" fill="#FEFFFF" transform="matrix(1.00, 0.00, -0.00, -1.00, 790.6, 485.0)"> </text><text xml:space="preserve" font-family="GillSans" font-size="114.0" fill="#FEFFFF" transform="matrix(1.00, 0.00, -0.00, -1.00, 822.3, 485.0)">f</text><text xml:space="preserve" font-family="GillSans" font-size="114.0" fill="#FEFFFF" transform="matrix(1.00, 0.00, -0.00, -1.00, 850.8, 485.0)">r</text><text xml:space="preserve" font-family="GillSans" font-size="114.0" fill="#FEFFFF" transform="matrix(1.00, 0.00, -0.00, -1.00, 895.9, 485.0)">a</text><text xml:space="preserve" font-family="GillSans" font-size="114.0" fill="#FEFFFF" transform="matrix(1.00, 0.00, -0.00, -1.00, 944.6, 485.0)">m</text><text xml:space="preserve" font-family="GillSans" font-size="114.0" fill="#FEFFFF" transform="matrix(1.00, 0.00, -0.00, -1.00, 1032.5, 485.0)">e</text><text xml:space="preserve" font-family="GillSans" font-size="114.0" fill="#FEFFFF" transform="matrix(1.00, 0.00, -0.00, -1.00, 1085.3, 485.0)">w</text><text xml:space="preserve" font-family="GillSans" font-size="114.0" fill="#FEFFFF" transform="matrix(1.00, 0.00, -0.00, -1.00, 1165.1, 485.0)">o</text><text xml:space="preserve" font-family="GillSans" font-size="114.0" fill="#FEFFFF" transform="matrix(1.00, 0.00, -0.00, -1.00, 1228.0, 485.0)">r</text><text xml:space="preserve" font-family="GillSans" font-size="114.0" fill="#FEFFFF" transform="matrix(1.00, 0.00, -0.00, -1.00, 1273.1, 485.0)">k</text><text xml:space="preserve" font-family="GillSans" font-size="114.0" fill="#FEFFFF" transform="matrix(1.00, 0.00, -0.00, -1.00, 1327.7, 485.0)">s</text><text xml:space="preserve" font-family="GillSans" font-size="114.0" fill="#FEFFFF" transform="matrix(1.00, 0.00, -0.00, -1.00, 1371.5, 485.0)">.</text><text xml:space="preserve" font-family="GillSans" font-size="36.0" fill="#FEFFFF" transform="matrix(1.00, 0.00, -0.00, -1.00, 702.0, 996.0)">t</text><text xml:space="preserve" font-family="GillSans" font-size="36.0" fill="#FEFFFF" transform="matrix(1.00, 0.00, -0.00, -1.00, 714.0, 996.0)">w</text><text xml:space="preserve" font-family="GillSans" font-size="36.0" fill="#FEFFFF" transform="matrix(1.00, 0.00, -0.00, -1.00, 739.9, 996.0)">i</text><text xml:space="preserve" font-family="GillSans" font-size="36.0" fill="#FEFFFF" transform="matrix(1.00, 0.00, -0.00, -1.00, 747.8, 996.0)">t</text><text xml:space="preserve" font-family="GillSans" font-size="36.0" fill="#FEFFFF" transform="matrix(1.00, 0.00, -0.00, -1.00, 759.8, 996.0)">t</text><text xml:space="preserve" font-family="GillSans" font-size="36.0" fill="#FEFFFF" transform="matrix(1.00, 0.00, -0.00, -1.00, 771.8, 996.0)">e</text><text xml:space="preserve" font-family="GillSans" font-size="36.0" fill="#FEFFFF" transform="matrix(1.00, 0.00, -0.00, -1.00, 789.0, 996.0)">r</text><text xml:space="preserve" font-family="GillSans" font-size="36.0" fill="#FEFFFF" transform="matrix(1.00, 0.00, -0.00, -1.00, 799.7, 996.0)">.</text><text xml:space="preserve" font-family="GillSans" font-size="36.0" fill="#FEFFFF" transform="matrix(1.00, 0.00, -0.00, -1.00, 807.6, 996.0)">c</text><text xml:space="preserve" font-family="GillSans" font-size="36.0" fill="#FEFFFF" transform="matrix(1.00, 0.00, -0.00, -1.00, 823.3, 996.0)">o</text><text xml:space="preserve" font-family="GillSans" font-size="36.0" fill="#FEFFFF" transform="matrix(1.00, 0.00, -0.00, -1.00, 843.2, 996.0)">m</text><text xml:space="preserve" font-family="GillSans" font-size="36.0" fill="#FEFFFF" transform="matrix(1.00, 0.00, -0.00, -1.00, 870.9, 996.0)">/</text><text xml:space="preserve" font-family="GillSans" font-size="36.0" fill="#FEFFFF" transform="matrix(1.00, 0.00, -0.00, -1.00, 881.0, 996.0)">d</text><text xml:space="preserve" font-family="GillSans" font-size="36.0" fill="#FEFFFF" transform="matrix(1.00, 0.00, -0.00, -1.00, 899.4, 996.0)">a</text><text xml:space="preserve" font-family="GillSans" font-size="36.0" fill="#FEFFFF" transform="matrix(1.00, 0.00, -0.00, -1.00, 914.7, 996.0)">m</text><text xml:space="preserve" font-family="GillSans" font-size="36.0" fill="#FEFFFF" transform="matrix(1.00, 0.00, -0.00, -1.00, 942.5, 996.0)">o</text><text xml:space="preserve" font-family="GillSans" font-size="36.0" fill="#FEFFFF" transform="matrix(1.00, 0.00, -0.00, -1.00, 962.4, 996.0)">g</text></g></svg>