<?xml version="1.0" encoding="UTF-8" standalone="no"?><svg xmlns="http://www.w3.org/2000/svg" xmlns:xlink="http://www.w3.org/1999/xlink" clip-rule="evenodd" stroke-miterlimit="4.00" viewBox="0 0 1680 1050"><desc>SVG generated by Keynote</desc><defs></defs><g transform="matrix(1.00, 0.00, -0.00, -1.00, 0.0, 1050.0)"><g><clipPath id="clip-25"><path d="M 0.0 1050.0 L 1680.0 1050.0 L 1680.0 0.0 L 0.0 0.0 Z M 0.0 1050.0 "></path></clipPath><g clip-path="url(#clip-25)"><image xlink:href="../../3A670F5E-8221-4757-901E-2DA3EDD031A5/assets/FE8799802A2C1C906EEE3F4E2B47FBA7.jpeg" width="1229.00" height="768.00" transform="matrix(1.37, 0.00, -0.00, -1.37, 0.0, 1050.0)"></image></g></g><text xml:space="preserve" font-family="GillSans" font-size="114.0" fill="#FEFFFF" transform="matrix(1.00, 0.00, -0.00, -1.00, 208.0, 551.0)">I</text><text xml:space="preserve" font-family="GillSans" font-size="114.0" fill="#FEFFFF" transform="matrix(1.00, 0.00, -0.00, -1.00, 236.5, 551.0)"> </text><text xml:space="preserve" font-family="GillSans" font-size="114.0" fill="#FEFFFF" transform="matrix(1.00, 0.00, -0.00, -1.00, 268.2, 551.0)">l</text><text xml:space="preserve" font-family="GillSans" font-size="114.0" fill="#FEFFFF" transform="matrix(1.00, 0.00, -0.00, -1.00, 293.2, 551.0)">i</text><text xml:space="preserve" font-family="GillSans" font-size="114.0" fill="#FEFFFF" transform="matrix(1.00, 0.00, -0.00, -1.00, 318.2, 551.0)">k</text><text xml:space="preserve" font-family="GillSans" font-size="114.0" fill="#FEFFFF" transform="matrix(1.00, 0.00, -0.00, -1.00, 369.4, 551.0)">e</text><text xml:space="preserve" font-family="GillSans" font-size="114.0" fill="#FEFFFF" transform="matrix(1.00, 0.00, -0.00, -1.00, 424.0, 551.0)"> </text><text xml:space="preserve" font-family="GillSans" font-size="114.0" fill="#FEFFFF" transform="matrix(1.00, 0.00, -0.00, -1.00, 455.6, 551.0)">t</text><text xml:space="preserve" font-family="GillSans" font-size="114.0" fill="#FEFFFF" transform="matrix(1.00, 0.00, -0.00, -1.00, 493.6, 551.0)">o</text><text xml:space="preserve" font-family="GillSans" font-size="114.0" fill="#FEFFFF" transform="matrix(1.00, 0.00, -0.00, -1.00, 556.5, 551.0)"> </text><text xml:space="preserve" font-family="GillSans" font-size="114.0" fill="#FEFFFF" transform="matrix(1.00, 0.00, -0.00, -1.00, 588.1, 551.0)">ï¬</text><text xml:space="preserve" font-family="GillSans" font-size="114.0" fill="#FEFFFF" transform="matrix(1.00, 0.00, -0.00, -1.00, 645.1, 551.0)">n</text><text xml:space="preserve" font-family="GillSans" font-size="114.0" fill="#FEFFFF" transform="matrix(1.00, 0.00, -0.00, -1.00, 702.1, 551.0)">d</text><text xml:space="preserve" font-family="GillSans" font-size="114.0" fill="#FEFFFF" transform="matrix(1.00, 0.00, -0.00, -1.00, 760.2, 551.0)"> </text><text xml:space="preserve" font-family="GillSans" font-size="114.0" fill="#FEFFFF" transform="matrix(1.00, 0.00, -0.00, -1.00, 791.9, 551.0)">i</text><text xml:space="preserve" font-family="GillSans" font-size="114.0" fill="#FEFFFF" transform="matrix(1.00, 0.00, -0.00, -1.00, 816.9, 551.0)">n</text><text xml:space="preserve" font-family="GillSans" font-size="114.0" fill="#FEFFFF" transform="matrix(1.00, 0.00, -0.00, -1.00, 873.9, 551.0)">t</text><text xml:space="preserve" font-family="GillSans" font-size="114.0" fill="#FEFFFF" transform="matrix(1.00, 0.00, -0.00, -1.00, 911.9, 551.0)">e</text><text xml:space="preserve" font-family="GillSans" font-size="114.0" fill="#FEFFFF" transform="matrix(1.00, 0.00, -0.00, -1.00, 966.5, 551.0)">r</text><text xml:space="preserve" font-family="GillSans" font-size="114.0" fill="#FEFFFF" transform="matrix(1.00, 0.00, -0.00, -1.00, 1009.3, 551.0)">e</text><text xml:space="preserve" font-family="GillSans" font-size="114.0" fill="#FEFFFF" transform="matrix(1.00, 0.00, -0.00, -1.00, 1063.9, 551.0)">s</text><text xml:space="preserve" font-family="GillSans" font-size="114.0" fill="#FEFFFF" transform="matrix(1.00, 0.00, -0.00, -1.00, 1107.8, 551.0)">t</text><text xml:space="preserve" font-family="GillSans" font-size="114.0" fill="#FEFFFF" transform="matrix(1.00, 0.00, -0.00, -1.00, 1145.7, 551.0)">i</text><text xml:space="preserve" font-family="GillSans" font-size="114.0" fill="#FEFFFF" transform="matrix(1.00, 0.00, -0.00, -1.00, 1170.8, 551.0)">n</text><text xml:space="preserve" font-family="GillSans" font-size="114.0" fill="#FEFFFF" transform="matrix(1.00, 0.00, -0.00, -1.00, 1227.8, 551.0)">g</text><text xml:space="preserve" font-family="GillSans" font-size="114.0" fill="#FEFFFF" transform="matrix(1.00, 0.00, -0.00, -1.00, 1276.4, 551.0)"> </text><text xml:space="preserve" font-family="GillSans" font-size="114.0" fill="#FEFFFF" transform="matrix(1.00, 0.00, -0.00, -1.00, 1308.0, 551.0)">s</text><text xml:space="preserve" font-family="GillSans" font-size="114.0" fill="#FEFFFF" transform="matrix(1.00, 0.00, -0.00, -1.00, 1351.9, 551.0)">h</text><text xml:space="preserve" font-family="GillSans" font-size="114.0" fill="#FEFFFF" transform="matrix(1.00, 0.00, -0.00, -1.00, 1408.9, 551.0)">i</text><text xml:space="preserve" font-family="GillSans" font-size="114.0" fill="#FEFFFF" transform="matrix(1.00, 0.00, -0.00, -1.00, 1433.9, 551.0)">t</text><text xml:space="preserve" font-family="GillSans" font-size="114.0" fill="#FEFFFF" transform="matrix(1.00, 0.00, -0.00, -1.00, 1471.9, 551.0)"> </text><text xml:space="preserve" font-family="GillSans" font-size="114.0" fill="#FEFFFF" transform="matrix(1.00, 0.00, -0.00, -1.00, 702.0, 420.0)">t</text><text xml:space="preserve" font-family="GillSans" font-size="114.0" fill="#FEFFFF" transform="matrix(1.00, 0.00, -0.00, -1.00, 740.0, 420.0)">o</text><text xml:space="preserve" font-family="GillSans" font-size="114.0" fill="#FEFFFF" transform="matrix(1.00, 0.00, -0.00, -1.00, 802.8, 420.0)"> </text><text xml:space="preserve" font-family="GillSans" font-size="114.0" fill="#FEFFFF" transform="matrix(1.00, 0.00, -0.00, -1.00, 834.5, 420.0)">d</text><text xml:space="preserve" font-family="GillSans" font-size="114.0" fill="#FEFFFF" transform="matrix(1.00, 0.00, -0.00, -1.00, 892.6, 420.0)">o</text><text xml:space="preserve" font-family="GillSans" font-size="114.0" fill="#FEFFFF" transform="matrix(1.00, 0.00, -0.00, -1.00, 952.1, 420.0)">.</text><text xml:space="preserve" font-family="GillSans" font-size="36.0" fill="#FEFFFF" transform="matrix(1.00, 0.00, -0.00, -1.00, 702.0, 996.0)">t</text><text xml:space="preserve" font-family="GillSans" font-size="36.0" fill="#FEFFFF" transform="matrix(1.00, 0.00, -0.00, -1.00, 714.0, 996.0)">w</text><text xml:space="preserve" font-family="GillSans" font-size="36.0" fill="#FEFFFF" transform="matrix(1.00, 0.00, -0.00, -1.00, 739.9, 996.0)">i</text><text xml:space="preserve" font-family="GillSans" font-size="36.0" fill="#FEFFFF" transform="matrix(1.00, 0.00, -0.00, -1.00, 747.8, 996.0)">t</text><text xml:space="preserve" font-family="GillSans" font-size="36.0" fill="#FEFFFF" transform="matrix(1.00, 0.00, -0.00, -1.00, 759.8, 996.0)">t</text><text xml:space="preserve" font-family="GillSans" font-size="36.0" fill="#FEFFFF" transform="matrix(1.00, 0.00, -0.00, -1.00, 771.8, 996.0)">e</text><text xml:space="preserve" font-family="GillSans" font-size="36.0" fill="#FEFFFF" transform="matrix(1.00, 0.00, -0.00, -1.00, 789.0, 996.0)">r</text><text xml:space="preserve" font-family="GillSans" font-size="36.0" fill="#FEFFFF" transform="matrix(1.00, 0.00, -0.00, -1.00, 799.7, 996.0)">.</text><text xml:space="preserve" font-family="GillSans" font-size="36.0" fill="#FEFFFF" transform="matrix(1.00, 0.00, -0.00, -1.00, 807.6, 996.0)">c</text><text xml:space="preserve" font-family="GillSans" font-size="36.0" fill="#FEFFFF" transform="matrix(1.00, 0.00, -0.00, -1.00, 823.3, 996.0)">o</text><text xml:space="preserve" font-family="GillSans" font-size="36.0" fill="#FEFFFF" transform="matrix(1.00, 0.00, -0.00, -1.00, 843.2, 996.0)">m</text><text xml:space="preserve" font-family="GillSans" font-size="36.0" fill="#FEFFFF" transform="matrix(1.00, 0.00, -0.00, -1.00, 870.9, 996.0)">/</text><text xml:space="preserve" font-family="GillSans" font-size="36.0" fill="#FEFFFF" transform="matrix(1.00, 0.00, -0.00, -1.00, 881.0, 996.0)">d</text><text xml:space="preserve" font-family="GillSans" font-size="36.0" fill="#FEFFFF" transform="matrix(1.00, 0.00, -0.00, -1.00, 899.4, 996.0)">a</text><text xml:space="preserve" font-family="GillSans" font-size="36.0" fill="#FEFFFF" transform="matrix(1.00, 0.00, -0.00, -1.00, 914.7, 996.0)">m</text><text xml:space="preserve" font-family="GillSans" font-size="36.0" fill="#FEFFFF" transform="matrix(1.00, 0.00, -0.00, -1.00, 942.5, 996.0)">o</text><text xml:space="preserve" font-family="GillSans" font-size="36.0" fill="#FEFFFF" transform="matrix(1.00, 0.00, -0.00, -1.00, 962.4, 996.0)">g</text></g></svg>