<?xml version="1.0" encoding="UTF-8" standalone="no"?><svg xmlns="http://www.w3.org/2000/svg" xmlns:xlink="http://www.w3.org/1999/xlink" clip-rule="evenodd" stroke-miterlimit="4.00" viewBox="0 0 1680 1050"><desc>SVG generated by Keynote</desc><defs></defs><g transform="matrix(1.00, 0.00, -0.00, -1.00, 0.0, 1050.0)"><g><clipPath id="clip-251"><path d="M 0.0 1050.0 L 1680.0 1050.0 L 1680.0 0.0 L 0.0 0.0 Z M 0.0 1050.0 "></path></clipPath><g clip-path="url(#clip-251)"><image xlink:href="../../3A670F5E-8221-4757-901E-2DA3EDD031A5/assets/FE8799802A2C1C906EEE3F4E2B47FBA7.jpeg" width="1229.00" height="768.00" transform="matrix(1.37, 0.00, -0.00, -1.37, 0.0, 1050.0)"></image></g></g><text xml:space="preserve" font-family="GillSans" font-size="114.0" fill="#FEFFFF" transform="matrix(1.00, 0.00, -0.00, -1.00, 308.0, 485.0)">W</text><text xml:space="preserve" font-family="GillSans" font-size="114.0" fill="#FEFFFF" transform="matrix(1.00, 0.00, -0.00, -1.00, 426.8, 485.0)">W</text><text xml:space="preserve" font-family="GillSans" font-size="114.0" fill="#FEFFFF" transform="matrix(1.00, 0.00, -0.00, -1.00, 545.6, 485.0)">W</text><text xml:space="preserve" font-family="GillSans" font-size="114.0" fill="#FEFFFF" transform="matrix(1.00, 0.00, -0.00, -1.00, 664.4, 485.0)">:</text><text xml:space="preserve" font-family="GillSans" font-size="114.0" fill="#FEFFFF" transform="matrix(1.00, 0.00, -0.00, -1.00, 689.4, 485.0)">:</text><text xml:space="preserve" font-family="GillSans" font-size="114.0" fill="#FEFFFF" transform="matrix(1.00, 0.00, -0.00, -1.00, 714.4, 485.0)">F</text><text xml:space="preserve" font-family="GillSans" font-size="114.0" fill="#FEFFFF" transform="matrix(1.00, 0.00, -0.00, -1.00, 767.9, 485.0)">a</text><text xml:space="preserve" font-family="GillSans" font-size="114.0" fill="#FEFFFF" transform="matrix(1.00, 0.00, -0.00, -1.00, 816.5, 485.0)">c</text><text xml:space="preserve" font-family="GillSans" font-size="114.0" fill="#FEFFFF" transform="matrix(1.00, 0.00, -0.00, -1.00, 866.5, 485.0)">e</text><text xml:space="preserve" font-family="GillSans" font-size="114.0" fill="#FEFFFF" transform="matrix(1.00, 0.00, -0.00, -1.00, 921.1, 485.0)">b</text><text xml:space="preserve" font-family="GillSans" font-size="114.0" fill="#FEFFFF" transform="matrix(1.00, 0.00, -0.00, -1.00, 978.1, 485.0)">o</text><text xml:space="preserve" font-family="GillSans" font-size="114.0" fill="#FEFFFF" transform="matrix(1.00, 0.00, -0.00, -1.00, 1041.0, 485.0)">o</text><text xml:space="preserve" font-family="GillSans" font-size="114.0" fill="#FEFFFF" transform="matrix(1.00, 0.00, -0.00, -1.00, 1103.8, 485.0)">k</text><text xml:space="preserve" font-family="GillSans" font-size="114.0" fill="#FEFFFF" transform="matrix(1.00, 0.00, -0.00, -1.00, 1158.4, 485.0)">:</text><text xml:space="preserve" font-family="GillSans" font-size="114.0" fill="#FEFFFF" transform="matrix(1.00, 0.00, -0.00, -1.00, 1183.5, 485.0)">:</text><text xml:space="preserve" font-family="GillSans" font-size="114.0" fill="#FEFFFF" transform="matrix(1.00, 0.00, -0.00, -1.00, 1208.5, 485.0)">A</text><text xml:space="preserve" font-family="GillSans" font-size="114.0" fill="#FEFFFF" transform="matrix(1.00, 0.00, -0.00, -1.00, 1284.5, 485.0)">P</text><text xml:space="preserve" font-family="GillSans" font-size="114.0" fill="#FEFFFF" transform="matrix(1.00, 0.00, -0.00, -1.00, 1342.6, 485.0)">I</text><text xml:space="preserve" font-family="GillSans" font-size="36.0" fill="#FEFFFF" transform="matrix(1.00, 0.00, -0.00, -1.00, 702.0, 996.0)">t</text><text xml:space="preserve" font-family="GillSans" font-size="36.0" fill="#FEFFFF" transform="matrix(1.00, 0.00, -0.00, -1.00, 714.0, 996.0)">w</text><text xml:space="preserve" font-family="GillSans" font-size="36.0" fill="#FEFFFF" transform="matrix(1.00, 0.00, -0.00, -1.00, 739.9, 996.0)">i</text><text xml:space="preserve" font-family="GillSans" font-size="36.0" fill="#FEFFFF" transform="matrix(1.00, 0.00, -0.00, -1.00, 747.8, 996.0)">t</text><text xml:space="preserve" font-family="GillSans" font-size="36.0" fill="#FEFFFF" transform="matrix(1.00, 0.00, -0.00, -1.00, 759.8, 996.0)">t</text><text xml:space="preserve" font-family="GillSans" font-size="36.0" fill="#FEFFFF" transform="matrix(1.00, 0.00, -0.00, -1.00, 771.8, 996.0)">e</text><text xml:space="preserve" font-family="GillSans" font-size="36.0" fill="#FEFFFF" transform="matrix(1.00, 0.00, -0.00, -1.00, 789.0, 996.0)">r</text><text xml:space="preserve" font-family="GillSans" font-size="36.0" fill="#FEFFFF" transform="matrix(1.00, 0.00, -0.00, -1.00, 799.7, 996.0)">.</text><text xml:space="preserve" font-family="GillSans" font-size="36.0" fill="#FEFFFF" transform="matrix(1.00, 0.00, -0.00, -1.00, 807.6, 996.0)">c</text><text xml:space="preserve" font-family="GillSans" font-size="36.0" fill="#FEFFFF" transform="matrix(1.00, 0.00, -0.00, -1.00, 823.3, 996.0)">o</text><text xml:space="preserve" font-family="GillSans" font-size="36.0" fill="#FEFFFF" transform="matrix(1.00, 0.00, -0.00, -1.00, 843.2, 996.0)">m</text><text xml:space="preserve" font-family="GillSans" font-size="36.0" fill="#FEFFFF" transform="matrix(1.00, 0.00, -0.00, -1.00, 870.9, 996.0)">/</text><text xml:space="preserve" font-family="GillSans" font-size="36.0" fill="#FEFFFF" transform="matrix(1.00, 0.00, -0.00, -1.00, 881.0, 996.0)">d</text><text xml:space="preserve" font-family="GillSans" font-size="36.0" fill="#FEFFFF" transform="matrix(1.00, 0.00, -0.00, -1.00, 899.4, 996.0)">a</text><text xml:space="preserve" font-family="GillSans" font-size="36.0" fill="#FEFFFF" transform="matrix(1.00, 0.00, -0.00, -1.00, 914.7, 996.0)">m</text><text xml:space="preserve" font-family="GillSans" font-size="36.0" fill="#FEFFFF" transform="matrix(1.00, 0.00, -0.00, -1.00, 942.5, 996.0)">o</text><text xml:space="preserve" font-family="GillSans" font-size="36.0" fill="#FEFFFF" transform="matrix(1.00, 0.00, -0.00, -1.00, 962.4, 996.0)">g</text></g></svg>